<svg id="Layer_1" xmlns="http://www.w3.org/2000/svg" viewBox="0 0 1920 921"><style>.st0{fill:#dbdbdf}.st1{fill:#f6aa27}.st2{fill:#d0e9d7}.st3{fill:#3ca756}.st4{fill:#fff}.st5{fill:#d8332c}.st6{fill:#fce8e5}.st7{fill:#557ebf}.st8{fill:#d4e2f4}.st10{fill:#ffefc6}.st11{fill:#f9bc15}</style><g id="RIGHT_Net"><path class="st0" d="M1159.4 0h.6v200.6h-.6zm39.9 0h.6v200.6h-.6zm40 0h.6v200.6h-.6zm40 0h.6v200.6h-.6zm40 0h.6v200.6h-.6zm40 0h.6v200.6h-.6zM999.4.3h.6v200.6h-.6zm39.9 0h.6v200.6h-.6zm40 0h.6v200.6h-.6zm40 0h.6v200.6h-.6zm280-.3h.6v200.6h-.6zm40 0h.6v200.6h-.6zm40 0h.6v200.6h-.6zm39.9 0h.6v200.6h-.6zm40 0h.6v560.5h-.6zm40 0h.6v560.5h-.6zm40 0h.6v560.5h-.6zm40 0h.6v560.5h-.6zm40 0h.6v560.5h-.6zm40 0h.6v560.5h-.6zm40 0h.6v840.7h-.6zm39.9 0h.6v840.7h-.6zm40 0h.6v840.7h-.6zm40 0h.6v840.7h-.6z"/><path class="st0" d="M999.4 0h919.7v.3H999.4zm0 39.7h919.7v.6H999.4zm0 40h919.7v.6H999.4zm0 40h919.7v.6H999.4zm0 40.6h919.7v.6H999.4zm0 40h919.7v.6H999.4zm559.8 40h359.9v.6h-359.9zm0 40h359.9v.6h-359.9zm0 40h359.9v.6h-359.9zm0 39.9h359.9v.6h-359.9zm0 40h359.9v.6h-359.9zm0 40h359.9v.6h-359.9zm0 40h359.9v.6h-359.9zm0 40h359.9v.6h-359.9zm0 40h359.9v.6h-359.9zm240 40h119.9v.6h-119.9zm0 40h119.9v.6h-119.9zm0 39.9h119.9v.6h-119.9zm0 40.3h119.9v.6h-119.9zm0 39.9h119.9v.6h-119.9zm0 40.1h119.9v.6h-119.9zm0 39.9h119.9v.6h-119.9z"/></g><g id="LEFT_Net"><path class="st0" d="M-.3 120.3h.6v801h-.6zm40 0h.6v801h-.6zm40 0h.6v801h-.6zm40 0h.6v801h-.6zm40 0h.6v801h-.6zm39.9 0h.6v600.4h-.6zm40 0h.6v600.4h-.6zm40 0h.6v600.4h-.6zm40 0h.6v600.4h-.6zm40-.6h.6v160.6h-.6zm40 0h.6v160.6h-.6zM439.6 0h.6v280.3h-.6zm40 0h.6v280.3h-.6zm39.9 0h.6v280.3h-.6zm40 0h.6v280.3h-.6zm40 0h.6v120.3h-.6zm40 0h.6v120.3h-.6zm40 0h.6v120.3h-.6zm40 0h.6v120.3h-.6zm40 0h.6v120.3h-.6zm40 0h.6v120.3h-.6z"/><path class="st0" d="M439.9-.3h359.9v.6H439.9zm0 40h359.9v.6H439.9zm0 40h359.9v.6H439.9zM0 119.7h799.8v.6H0zm0 40.6h559.9v.6H0zm0 40h559.9v.6H0zm0 40h559.9v.6H0zm0 40h559.9v.6H0zm0 40h320v.6H0zm0 39.9h320v.6H0zm0 40h320v.6H0zm0 40h320v.6H0zm0 40h320v.6H0zm0 40h320v.6H0zm0 40h320v.6H0zm0 40h320v.6H0zm0 40h320v.6H0zm0 39.9h320v.6H0zm0 40h320v.6H0zm0 40h160v.6H0zm0 40h160v.6H0zm0 40h160v.6H0zm0 40.6h160v.6H0zm0 40h160v.6H0z"/></g><path class="st1" d="M1756.2 161.1c-3 0-5.9-1.2-8-3.3-2.2-2.1-3.4-5-3.4-8l-.1-20.8c0-2.2-.9-4.2-2.4-5.8-1.5-1.5-3.6-2.4-5.8-2.4h-3.8v-1h3.8c4.5 0 8.2-3.7 8.1-8.2l-.1-20.8c0-6.3 5.1-11.4 11.3-11.4v1c-5.7 0-10.4 4.7-10.4 10.4l.1 20.8c0 2.4-.9 4.8-2.7 6.5-1 1-2.2 1.7-3.5 2.2 1.3.4 2.5 1.2 3.5 2.2 1.7 1.7 2.7 4 2.7 6.5l.1 20.8c0 2.8 1.1 5.4 3.1 7.3 2 1.9 4.6 3 7.3 3l.2 1c.1 0 0 0 0 0zm46.3 0v-1c2.8 0 5.4-1.1 7.3-3 2-2 3.1-4.6 3.1-7.3l.1-20.8c0-2.4 1-4.7 2.7-6.5 1-1 2.2-1.7 3.5-2.2-1.3-.5-2.5-1.2-3.5-2.2-1.7-1.7-2.7-4-2.7-6.5l.1-20.8c0-5.7-4.6-10.4-10.4-10.4v-1c6.3 0 11.4 5.2 11.3 11.4l-.1 20.8c0 4.5 3.6 8.2 8.1 8.2h3.8v1h-3.8c-4.5 0-8.1 3.6-8.2 8.1l-.1 20.8c0 3-1.2 5.9-3.4 8-1.9 2.2-4.8 3.4-7.8 3.4z"/><path class="st2" d="M919.7 40h239.9v120.6H919.7z"/><path class="st3" d="M920.2 160.6H798.7V39.9h121.5v120.7zm-120.5-1h119.5V40.9H799.7v118.7z"/><circle class="st3" cx="859.5" cy="84" r="12.8"/><path class="st3" d="M833.5 128.7c0-14.4 11.6-26 26-26s26 11.6 26 26h-52zm158.6-31.4c-7.3 0-13.3-6-13.3-13.3s6-13.3 13.3-13.3 13.3 6 13.3 13.3-6 13.3-13.3 13.3zm0-25.6c-6.8 0-12.3 5.5-12.3 12.3s5.5 12.3 12.3 12.3 12.3-5.5 12.3-12.3-5.5-12.3-12.3-12.3zm26.5 57.5h-53v-.5c0-14.6 11.9-26.5 26.5-26.5s26.5 11.9 26.5 26.5v.5zm-52-1h51c-.3-13.8-11.6-25-25.5-25s-25.2 11.2-25.5 25z"/><path class="st4" d="M1087.3 73.2c6 0 10.8 4.8 10.8 10.8s-4.8 10.8-10.8 10.8-10.8-4.8-10.8-10.8 4.8-10.8 10.8-10.8m0-2c-7.1 0-12.8 5.7-12.8 12.8 0 7.1 5.7 12.8 12.8 12.8s12.8-5.7 12.8-12.8c0-7-5.8-12.8-12.8-12.8zm0 33.5c12.6 0 22.9 9.7 23.9 22h-47.9c1-12.3 11.4-22 24-22m0-2c-14.4 0-26 11.6-26 26h52c0-14.3-11.7-26-26-26z"/><path class="st1" d="M1799.4 801.4c21.4 0 38.8 17.4 38.8 38.8s-17.4 38.8-38.8 38.8-38.8-17.4-38.8-38.8c0-21.3 17.4-38.8 38.8-38.8m0-1c-22 0-39.8 17.8-39.8 39.8s17.8 39.8 39.8 39.8 39.8-17.8 39.8-39.8c.1-21.9-17.7-39.8-39.8-39.8z"/><path class="st1" d="M1779.6 839.8h39.7v1h-39.7z"/><path class="st1" d="M1798.9 820.4h1v39.7h-1z"/><path class="st5" d="M1673.3 600h95v1h-95zm-33.7 33.6h19.2v1h-19.2zm27.4 0h42.8v1H1667zm-27.4-67.3h44.5v1h-44.5zm52.9 0h22.6v1h-22.6zm84.2 33.7h22.6v1h-22.6zm-52.8-33.7h31v1h-31z"/><path class="st6" d="M1839.4 510.5h80.6v169.9h-80.6z"/><path class="st5" d="M1599.5 510.5h239.9v10h-239.9z"/><path class="st4" d="M1913.1 600h6.9v1h-6.9zm-33.7 33.6h19.2v1h-19.2zm27.3 0h12.7v1h-12.7zm-27.3-67.3h40v1h-40zm-40-44.8h80.6v1h-80.6z"/><path class="st5" d="M1838.4 521.5v158h-237.9v-158h237.9m1-1h-239.9v160h239.9v-160z"/><path class="st7" d="M39.5 836.7V679.9h200.9v121H73l-33.5 35.8zm1-155.8v153.2l32.1-34.3h166.9v-119l-199 .1z"/><path class="st7" d="M80.1 720h120v1h-120zm0 39.8h120v1h-120zm1479.4-398.2c-44.7 0-81-36.3-81-81s36.3-81 81-81 81 36.3 81 81-36.3 81-81 81zm0-161c-44.1 0-80 35.9-80 80s35.9 80 80 80 80-35.9 80-80-35.9-80-80-80z"/><path class="st7" d="M1559.5 361.6c-19.3 0-35.1-36.3-35.1-81s15.7-81 35.1-81 35.1 36.3 35.1 81-15.7 81-35.1 81zm0-161c-18.8 0-34.1 35.9-34.1 80s15.3 80 34.1 80 34.1-35.9 34.1-80-15.3-80-34.1-80z"/><path class="st7" d="M1483.6 306.9h151.8v1h-151.8zm0-53.7h151.8v1h-151.8z"/><path class="st8" d="M1559.5 280.6h120v120h-120z"/><g class="st9"><path class="st4" d="M1559.5 361.6c-44.7 0-81-36.3-81-81s36.3-81 81-81 81 36.3 81 81-36.3 81-81 81zm0-161c-44.1 0-80 35.9-80 80s35.9 80 80 80 80-35.9 80-80-35.9-80-80-80z"/><path class="st4" d="M1559.5 361.6c-19.3 0-35.1-36.3-35.1-81s15.7-81 35.1-81 35.1 36.3 35.1 81-15.7 81-35.1 81zm0-161c-18.8 0-34.1 35.9-34.1 80s15.3 80 34.1 80 34.1-35.9 34.1-80-15.3-80-34.1-80z"/><path class="st4" d="M1483.6 306.9h151.8v1h-151.8zm0-53.7h151.8v1h-151.8z"/></g><path class="st10" d="M200.4 440.2h159.5v120.3H200.4z"/><path class="st1" d="M360.4 561h-161V279.4h161V561zm-159.9-1h159V280.4h-159V560z"/><path class="st1" d="M231 516.1l-.7-.7 15.1-15.1-15.1-15.1.7-.7 15.8 15.8zm31.3-.8h67.3v1h-67.3z"/><circle class="st11" cx="280.1" cy="359.9" r="39.8"/><path class="st4" d="M307.9 356.5c-15.3-15.3-40.2-15.3-55.5 0l-.7-.7c15.7-15.7 41.2-15.7 56.9 0l-.7.7zm-10.6 10.6c-9.5-9.5-24.9-9.5-34.3 0l-.7-.7c9.9-9.9 25.9-9.9 35.7 0l-.7.7zm-10.6 10.6c-1.7-1.8-4.1-2.7-6.6-2.7s-4.8 1-6.6 2.7l-.7-.7c1.9-1.9 4.5-3 7.3-3 2.7 0 5.3 1.1 7.3 3l-.7.7z"/><path class="st1" d="M200 290.1h160v1H200z"/></svg>